<svg width="273" height="46" viewBox="0 0 273 46" fill="none" xmlns="http://www.w3.org/2000/svg">
<path d="M107.567 0.00788116V9.55706H71.944V18.0776H100.651V27.6307H71.944V36.0055H107.567V45.7005H61.9376V0.00788116H107.567Z" fill="#E3E3E3"/>
<path d="M222.011 0.00788116V9.55706H186.392V18.0776H215.095V27.6307H186.392V36.0055H222.011V45.7005H176.382V0.00788116H222.011Z" fill="#E3E3E3"/>
<path d="M122.177 0.00788116C128.423 11.6576 134.39 23.469 140.518 35.1818C140.905 35.6784 142.442 35.2961 143.084 35.4301L161.552 0.00788116H172.74L148.972 45.7162L134.686 45.5586L111.063 0.00788116H122.177Z" fill="#E3E3E3"/>
<path d="M0.00394105 0.00788211L36.5888 0C41.3693 0.256169 47.0286 0.870973 49.8189 5.3086C51.9589 8.71367 52.5855 14.6804 50.812 18.3259C50.4022 19.1654 49.7085 19.8747 49.3144 20.7221C55.2024 22.6847 57.5 27.2603 57.1217 33.294C56.5344 42.7407 48.5814 45.6177 40.2658 45.7084L0 45.7005V0.00788211H0.00394105ZM10.0142 20.4304H12.7375C12.7966 20.4304 13.3956 19.8669 13.6479 19.725C19.1496 16.6864 29.9205 18.5072 36.439 18.0855C37.9208 17.9909 39.4578 17.7072 40.4116 16.4657C41.6175 14.8932 41.3929 11.7286 39.7377 10.5226C39.1465 10.0891 37.5858 9.55706 36.8765 9.55706H10.0142V20.4304ZM10.0142 36.0055H42.4688C42.7171 36.0055 43.9585 35.5798 44.262 35.4459C46.5517 34.4251 47.1271 31.359 45.6965 29.4042C44.865 28.2653 43.1979 27.8672 41.8777 27.6347C34.2596 27.9973 26.1844 27.146 18.6175 27.6268C15.445 27.8278 10.0142 29.6722 10.0142 33.5817V36.0055Z" fill="#E3E3E3"/>
<path d="M236.696 0.00788116V36.0055H272.465V45.7005H226.831V0.00788116H236.696Z" fill="#E3E3E3"/>
</svg>
