<svg width="233" height="60" viewBox="0 0 233 60" fill="none" xmlns="http://www.w3.org/2000/svg">
<path d="M91.5612 0.741211V8.8039H61.4925V15.996H85.7193V24.0587H61.4925V31.1287H91.5612V39.3134H53.0416V0.741211H91.5612Z" fill="#E3E3E3"/>
<path d="M188.164 0.741211V8.8039H158.098V15.996H182.325V24.0587H158.098V31.1287H188.164V39.3134H149.647V0.741211H188.164Z" fill="#E3E3E3"/>
<path d="M103.891 0.741179C109.162 10.5755 114.199 20.543 119.373 30.4328C119.7 30.8515 120.998 30.5271 121.538 30.6408L137.126 0.741179H146.569L126.507 39.3217L114.449 39.1886L94.5084 0.738403H103.888L103.891 0.741179Z" fill="#E3E3E3"/>
<path d="M0.764404 0.741138L31.6455 0.735596C35.6796 0.951857 40.4595 1.47033 42.8134 5.2161C44.6212 8.09127 45.1507 13.1263 43.6535 16.2038C43.307 16.9136 42.722 17.5125 42.3892 18.2278C47.3577 19.8831 49.2985 23.7481 48.9797 28.8385C48.4834 36.8125 41.771 39.2413 34.7535 39.3189L0.767177 39.3134V0.741138H0.764404ZM9.21247 17.9811H11.5109C11.5609 17.9811 12.0655 17.5042 12.2817 17.385C16.923 14.8203 26.0171 16.3563 31.5207 16.0015C32.7711 15.921 34.0687 15.6826 34.8728 14.6346C35.8903 13.3065 35.7018 10.6337 34.3016 9.61619C33.8025 9.25298 32.4856 8.80105 31.8867 8.80105H9.2097V17.9783L9.21247 17.9811ZM9.21247 31.1287H36.6084C36.8191 31.1287 37.8672 30.771 38.1222 30.6573C40.0547 29.7951 40.5399 27.2055 39.3338 25.5558C38.6296 24.5937 37.2239 24.261 36.1093 24.0614C29.6769 24.3663 22.8619 23.6482 16.4739 24.053C13.7956 24.2222 9.2097 25.7776 9.2097 29.0825V31.1287H9.21247Z" fill="#E3E3E3"/>
<path d="M200.56 0.741211V31.1287H230.751V39.3134H192.234V0.741211H200.56Z" fill="#E3E3E3"/>
<path d="M189.375 59.5755V45.8928H199.37C204.228 46.1534 206.973 49.3087 206.269 54.1912C205.7 58.1283 202.609 59.5062 198.941 59.5783H189.378L189.375 59.5755ZM191.956 57.0608H199.795C200.399 57.0608 201.76 56.5174 202.243 56.1292C203.715 54.9509 203.854 52.0424 203.094 50.4537C202.326 48.8429 200.71 48.4658 199.057 48.3466H191.954V57.0608H191.956Z" fill="#E3E3E3"/>
<path d="M186.608 45.8928V48.3466H175.54V51.4768H184.457V53.9306H175.54V57.0608H186.608V59.5755H172.959V45.8928H186.608Z" fill="#E3E3E3"/>
<path d="M232.969 59.5754H230.11L228.699 57.0552L218.867 57.069L217.506 59.5754H214.647C216.924 55.0173 219.35 50.5313 221.662 45.9898C221.706 45.8927 221.778 45.8983 221.867 45.8872C223.062 45.7486 224.523 46.0009 225.749 45.8872L225.932 45.951L232.971 59.5727L232.969 59.5754ZM220.179 54.5432H227.434L224.412 48.6015L223.342 48.5267L220.179 54.5432Z" fill="#E3E3E3"/>
<path d="M211.573 45.8928V59.5145C211.495 59.4813 211.39 59.5755 211.356 59.5755H208.988V45.8928H211.57H211.573Z" fill="#E3E3E3"/>
<path d="M154.604 45.8928L160.69 57.7983L161.183 56.4536L166.745 45.8956H169.881V59.4868C169.881 59.4868 169.795 59.5783 169.79 59.5783H167.3V50.4926L165.886 53.1376L162.539 59.5229L162.354 59.5811L158.877 59.5478L155.464 53.1348L154.141 50.5785V59.484C154.141 59.484 154.055 59.5755 154.05 59.5755H151.59C151.59 59.5755 151.499 59.4896 151.499 59.484V45.8928H154.604Z" fill="#E3E3E3"/>
</svg>
