<svg width="58" height="58" viewBox="0 0 58 58" fill="none" xmlns="http://www.w3.org/2000/svg">
<g clip-path="url(#clip0_42_112)">
<path d="M32.3253 58H25.6746L24.9931 57.4007C24.1666 56.6829 4.83331 39.585 4.83331 24.1667C4.83331 17.7573 7.37944 11.6104 11.9116 7.07825C16.4437 2.54612 22.5906 0 29 0C35.4094 0 41.5563 2.54612 46.0884 7.07825C50.6205 11.6104 53.1666 17.7573 53.1666 24.1667C53.1666 39.585 33.8333 56.6829 33.0068 57.4007L32.3253 58ZM27.5161 53.1667H30.4814C33.7826 50.1096 48.3333 35.9528 48.3333 24.1667C48.3333 19.0391 46.2964 14.1216 42.6707 10.4959C39.045 6.87023 34.1275 4.83333 29 4.83333C23.8725 4.83333 18.955 6.87023 15.3292 10.4959C11.7035 14.1216 9.66665 19.0391 9.66665 24.1667C9.66665 35.9745 24.2174 50.1144 27.5161 53.1667Z" fill="#0E3753"/>
<path d="M29 36.2502C26.6102 36.2502 24.274 35.5415 22.2869 34.2138C20.2998 32.886 18.751 30.9989 17.8365 28.7909C16.9219 26.583 16.6826 24.1534 17.1489 21.8095C17.6151 19.4656 18.7659 17.3125 20.4558 15.6226C22.1457 13.9327 24.2987 12.7819 26.6427 12.3157C28.9866 11.8494 31.4162 12.0887 33.6241 13.0033C35.8321 13.9178 37.7192 15.4666 39.047 17.4537C40.3747 19.4408 41.0834 21.777 41.0834 24.1668C41.0795 27.3704 39.8052 30.4416 37.54 32.7068C35.2748 34.972 32.2035 36.2463 29 36.2502ZM29 16.9168C27.5661 16.9168 26.1644 17.342 24.9721 18.1387C23.7799 18.9353 22.8506 20.0676 22.3019 21.3924C21.7532 22.7171 21.6096 24.1749 21.8893 25.5812C22.1691 26.9876 22.8596 28.2794 23.8735 29.2934C24.8874 30.3073 26.1793 30.9978 27.5856 31.2775C28.992 31.5573 30.4497 31.4137 31.7745 30.865C33.0992 30.3162 34.2315 29.387 35.0282 28.1947C35.8248 27.0025 36.25 25.6007 36.25 24.1668C36.25 22.244 35.4862 20.4 34.1266 19.0403C32.7669 17.6807 30.9228 16.9168 29 16.9168Z" fill="#0E3753"/>
<path d="M13.8765 56.1612C5.05808 53.8073 0 49.6337 0 44.7086C0 40.2861 4.0165 36.4919 11.31 34.0317L12.8567 38.6089C7.975 40.2547 4.83333 42.6496 4.83333 44.7086C4.83333 46.7168 8.01367 49.5927 15.1235 51.4897L13.8765 56.1612Z" fill="#0E3753"/>
<path d="M41.5666 56.7626L40.6 52.0307C48.8577 50.3052 53.1666 47.0403 53.1666 44.7082C53.1666 42.6154 49.9404 40.1963 44.95 38.5433L46.4701 33.9517C53.9037 36.4167 58 40.235 58 44.7082C58 50.1071 51.8616 54.6166 41.5666 56.7626Z" fill="#0E3753"/>
</g>
<defs>
<clipPath id="clip0_42_112">
<rect width="58" height="58" fill="white"/>
</clipPath>
</defs>
</svg>
