<svg width="126" height="118" viewBox="0 0 126 118" fill="none" xmlns="http://www.w3.org/2000/svg">
<path d="M108.36 33.0399H94.5V24.7799C94.5 16.3311 87.1416 9.43994 78.12 9.43994H47.88C38.8584 9.43994 31.5 16.3311 31.5 24.7799V33.0399H17.64C11.3904 33.0399 6.29999 37.8071 6.29999 43.6599V97.9399C6.29999 103.793 11.3904 108.56 17.64 108.56H108.36C114.61 108.56 119.7 103.793 119.7 97.9399V43.6599C119.7 37.8071 114.61 33.0399 108.36 33.0399ZM34.02 24.7799C34.02 17.6291 40.2444 11.7999 47.88 11.7999H78.12C85.7556 11.7999 91.98 17.6291 91.98 24.7799V33.0399H84.42V24.7799C84.42 21.5231 81.5976 18.8799 78.12 18.8799H47.88C44.4024 18.8799 41.58 21.5231 41.58 24.7799V33.0399H34.02V24.7799ZM81.9 33.0399H44.1V24.7799C44.1 22.8211 45.7884 21.2399 47.88 21.2399H78.12C80.2116 21.2399 81.9 22.8211 81.9 24.7799V33.0399ZM117.18 97.9399C117.18 102.495 113.224 106.2 108.36 106.2H17.64C12.7764 106.2 8.81999 102.495 8.81999 97.9399V67.2363C12.4236 73.5611 19.5552 77.8799 27.72 77.8799H34.02V88.4999C34.02 89.1607 34.5744 89.6799 35.28 89.6799H47.88C48.5856 89.6799 49.14 89.1607 49.14 88.4999V77.8799H76.86V88.4999C76.86 89.1607 77.4144 89.6799 78.12 89.6799H90.72C91.4256 89.6799 91.98 89.1607 91.98 88.4999V77.8799H98.28C106.445 77.8799 113.576 73.5611 117.18 67.2363V97.9399ZM36.54 87.3199V68.4399H46.62V87.3199H36.54ZM79.38 87.3199V68.4399H89.46V87.3199H79.38ZM117.18 57.8199C117.18 67.5903 108.713 75.5199 98.28 75.5199H91.98V67.2599C91.98 66.5991 91.4256 66.0799 90.72 66.0799H78.12C77.4144 66.0799 76.86 66.5991 76.86 67.2599V75.5199H49.14V67.2599C49.14 66.5991 48.5856 66.0799 47.88 66.0799H35.28C34.5744 66.0799 34.02 66.5991 34.02 67.2599V75.5199H27.72C17.2872 75.5199 8.81999 67.5903 8.81999 57.8199V43.6599C8.81999 39.1051 12.7764 35.3999 17.64 35.3999H108.36C113.224 35.3999 117.18 39.1051 117.18 43.6599V57.8199Z" fill="#EADCCB"/>
</svg>
