<svg width="104" height="104" viewBox="0 0 104 104" fill="none" xmlns="http://www.w3.org/2000/svg">
<path fill-rule="evenodd" clip-rule="evenodd" d="M48.2615 62.6586C47.1262 62.6586 30.7559 51.1115 29.7614 50.8154H5.10293C2.28943 50.8154 0.00244141 48.5271 0.00244141 45.7143V18.536C0.00244141 15.7231 2.29065 13.4349 5.10293 13.4349H49.7526C52.5655 13.4349 54.8537 15.7231 54.8537 18.536V45.7155C54.8537 48.5284 52.5655 50.8166 49.7526 50.8166H46.0897L49.4961 61.4399C49.4961 62.3247 48.8599 62.5465 48.2609 62.6586H48.2615ZM5.10293 15.8718C3.63433 15.8718 2.43995 17.0668 2.43995 18.536V45.7155C2.43995 47.1847 3.63494 48.3797 5.10293 48.3797H30.124C30.361 48.3797 30.592 48.4492 30.79 48.5777L46.0348 58.5307L43.2542 49.9738C42.9983 49.1883 43.5876 48.3785 44.4133 48.3785H49.7532C51.2218 48.3785 52.4162 47.1835 52.4162 45.7143V18.536C52.4162 17.0668 51.2212 15.8718 49.7532 15.8718H5.10293Z" fill="#EADCCB"/>
<path fill-rule="evenodd" clip-rule="evenodd" d="M77.5536 98.1329H32.0423C31.2848 98.1329 30.7114 97.4462 30.8424 96.7027C31.7912 91.311 32.183 82.7163 30.4402 74.7609C27.6749 62.1333 20.4074 61.7732 19.04 49.7344C18.859 48.1384 21.2813 47.8672 21.4617 49.4595C22.7255 60.6209 29.9253 61.0151 32.8217 74.2386C34.4932 81.8686 34.2842 90.0562 33.4719 95.6948H76.3355V84.403C76.3355 83.7303 76.8821 83.1843 77.5542 83.1843H84.9155C97.4047 83.1843 94.3438 74.1021 93.5419 63.9895C93.4949 63.4021 93.877 62.8646 94.4462 62.7147L98.8349 61.6087C101.819 61.694 102.23 60.7275 100.549 58.6038C98.1353 55.5539 94.0988 49.2121 94.2213 48.3108C99.0506 12.8085 57.8872 -1.76474 34.8881 15.6275C33.6126 16.5915 32.1434 14.6458 33.4189 13.683C46.1073 4.10051 64.9291 3.24251 79.1886 11.5934C92.3127 19.2801 98.6752 32.6139 96.6899 48.2237C97.4784 49.5747 100.369 54.454 102.457 57.0926C105.584 61.0432 103.662 64.0492 99.0153 64.0492L96.0555 64.8116C96.9818 74.5415 99.5095 85.6242 84.9119 85.6242H78.7699V96.916C78.7712 97.5882 78.2252 98.1335 77.5524 98.1335L77.5536 98.1329Z" fill="#EADCCB"/>
<path fill-rule="evenodd" clip-rule="evenodd" d="M27.4275 44.6625C24.9625 44.6625 22.9565 42.6564 22.9565 40.1903V36.172H18.9376C13.0529 36.172 13.0535 27.2282 18.9376 27.2282H22.9565V23.2106C22.9565 17.3258 31.8991 17.3264 31.8991 23.2106V27.2282H35.9173C41.8021 27.2282 41.8015 36.1726 35.9173 36.172L31.8991 36.1714V40.1897C31.8979 42.6564 29.8924 44.6619 27.4275 44.6619V44.6625ZM18.9376 29.6675C16.2612 29.6675 16.2612 33.737 18.9376 33.737C26.5085 33.7364 25.3934 32.6212 25.3934 40.1921C25.3934 42.8703 29.4616 42.8691 29.4616 40.1921C29.4616 32.6212 28.3464 33.737 35.9173 33.737C38.5937 33.737 38.5943 29.6682 35.9173 29.6682C28.347 29.6682 29.4622 30.7833 29.4622 23.213C29.4622 20.5372 25.394 20.536 25.394 23.213C25.394 30.7839 26.5091 29.6682 18.9376 29.6682V29.6675Z" fill="#EADCCB"/>
</svg>
