<svg width="36" height="28" viewBox="0 0 36 28" fill="none" xmlns="http://www.w3.org/2000/svg">
<path d="M23.1155 0.330079L35.6705 13.1843C35.8815 13.4003 36 13.6933 36 13.9988C36 14.3042 35.8815 14.5972 35.6705 14.8132L23.1155 27.6676C22.9041 27.8814 22.6186 28.0009 22.3214 28C22.0243 27.9991 21.7395 27.8778 21.5294 27.6626C21.3192 27.4475 21.2008 27.1559 21.1999 26.8517C21.199 26.5474 21.3157 26.2551 21.5246 26.0387L32.159 15.1506L1.125 15.1506C0.826631 15.1506 0.540483 15.0293 0.329504 14.8132C0.118526 14.5972 -5.98659e-07 14.3043 -6.12012e-07 13.9988C-6.25365e-07 13.6933 0.118526 13.4003 0.329504 13.1843C0.540483 12.9683 0.826631 12.847 1.125 12.847L32.159 12.847L21.5246 1.95889C21.3167 1.74223 21.2009 1.45029 21.2022 1.14661C21.2035 0.842925 21.322 0.552075 21.5317 0.337342C21.7415 0.122609 22.0255 0.00137042 22.3222 1.04684e-05C22.6188 -0.00134948 22.9039 0.117278 23.1155 0.330079Z" fill="#E5E5E5"/>
</svg>
