<svg width="32" height="32" viewBox="0 0 32 32" fill="none" xmlns="http://www.w3.org/2000/svg">
<path d="M9.17203 0.803117L29.7117 0.803059C30.0569 0.803066 30.3879 0.94018 30.6319 1.18424C30.876 1.42829 31.0131 1.7593 31.0131 2.10445L31.0132 22.6442C31.0111 22.988 30.873 23.317 30.6292 23.5594C30.3854 23.8017 30.0556 23.9378 29.7118 23.9378C29.368 23.9378 29.0382 23.8017 28.7943 23.5594C28.5505 23.317 28.4125 22.988 28.4104 22.6442L28.4103 5.24638L3.02477 30.6319C2.78071 30.876 2.44969 31.0131 2.10453 31.0131C1.75938 31.0131 1.42836 30.876 1.18429 30.6319C0.940231 30.3879 0.803118 30.0568 0.803118 29.7117C0.803118 29.3665 0.940232 29.0355 1.18429 28.7914L26.5698 3.4059L9.17197 3.40584C8.82886 3.40274 8.50085 3.26427 8.25932 3.02055C8.0178 2.77682 7.88229 2.44758 7.8823 2.10445C7.88231 1.76132 8.01783 1.43208 8.25936 1.18837C8.5009 0.944659 8.82892 0.806199 9.17203 0.803117Z" fill="#E5E5E5"/>
</svg>
