<svg width="36" height="28" viewBox="0 0 36 28" fill="none" xmlns="http://www.w3.org/2000/svg">
<path d="M12.8845 27.6699L0.329486 14.8157C0.118518 14.5997 -6.25367e-07 14.3067 -6.12014e-07 14.0012C-5.98661e-07 13.6958 0.118518 13.4028 0.329486 13.1868L12.8845 0.332429C13.0959 0.118588 13.3814 -0.000919295 13.6786 4.3384e-06C13.9757 0.000927972 14.2605 0.122208 14.4706 0.337359C14.6808 0.552511 14.7992 0.844053 14.8001 1.14832C14.801 1.45259 14.6843 1.74486 14.4754 1.96132L3.84096 12.8494L34.875 12.8494C35.1734 12.8494 35.4595 12.9707 35.6705 13.1868C35.8815 13.4028 36 13.6957 36 14.0012C36 14.3067 35.8815 14.5997 35.6705 14.8157C35.4595 15.0317 35.1734 15.153 34.875 15.153L3.84096 15.153L14.4754 26.0411C14.6833 26.2578 14.7991 26.5497 14.7978 26.8534C14.7965 27.1571 14.678 27.4479 14.4683 27.6627C14.2585 27.8774 13.9745 27.9986 13.6778 28C13.3812 28.0013 13.0961 27.8827 12.8845 27.6699Z" fill="#E5E5E5"/>
</svg>
